<mxfile host="Electron" modified="2023-05-10T09:42:21.550Z" agent="Mozilla/5.0 (Windows NT 10.0; Win64; x64) AppleWebKit/537.36 (KHTML, like Gecko) draw.io/21.1.2 Chrome/106.0.5249.199 Electron/21.4.3 Safari/537.36" etag="0dg7KKuWecauSfywoL33" version="21.1.2" type="device">
  <diagram name="Страница 1" id="a3P_k3TCpU6SPJCnchxj">
    <mxGraphModel dx="794" dy="798" grid="1" gridSize="10" guides="1" tooltips="1" connect="1" arrows="1" fold="1" page="1" pageScale="1" pageWidth="827" pageHeight="1169" math="0" shadow="0">
      <root>
        <mxCell id="0" />
        <mxCell id="1" parent="0" />
        <mxCell id="EBgIi9A2ly0JQrEV1j30-1" value="MapSprite" style="rounded=0;whiteSpace=wrap;html=1;" vertex="1" parent="1">
          <mxGeometry x="80" y="80" width="120" height="60" as="geometry" />
        </mxCell>
        <mxCell id="EBgIi9A2ly0JQrEV1j30-3" style="edgeStyle=orthogonalEdgeStyle;rounded=0;orthogonalLoop=1;jettySize=auto;html=1;exitX=0.5;exitY=0;exitDx=0;exitDy=0;" edge="1" parent="1" source="EBgIi9A2ly0JQrEV1j30-2" target="EBgIi9A2ly0JQrEV1j30-1">
          <mxGeometry relative="1" as="geometry" />
        </mxCell>
        <mxCell id="EBgIi9A2ly0JQrEV1j30-2" value="PhysicalMapSprite" style="rounded=0;whiteSpace=wrap;html=1;" vertex="1" parent="1">
          <mxGeometry x="80" y="220" width="120" height="60" as="geometry" />
        </mxCell>
        <mxCell id="EBgIi9A2ly0JQrEV1j30-4" value="Game" style="rounded=0;whiteSpace=wrap;html=1;" vertex="1" parent="1">
          <mxGeometry x="210" y="585" width="280" height="105" as="geometry" />
        </mxCell>
        <mxCell id="EBgIi9A2ly0JQrEV1j30-10" style="edgeStyle=none;shape=connector;rounded=0;orthogonalLoop=1;jettySize=auto;html=1;exitX=0.5;exitY=0;exitDx=0;exitDy=0;labelBackgroundColor=default;strokeColor=default;fontFamily=Helvetica;fontSize=11;fontColor=default;endArrow=classic;" edge="1" parent="1" source="EBgIi9A2ly0JQrEV1j30-5" target="EBgIi9A2ly0JQrEV1j30-7">
          <mxGeometry relative="1" as="geometry" />
        </mxCell>
        <mxCell id="EBgIi9A2ly0JQrEV1j30-5" value="Enemy" style="rounded=0;whiteSpace=wrap;html=1;" vertex="1" parent="1">
          <mxGeometry x="574" y="240" width="120" height="60" as="geometry" />
        </mxCell>
        <mxCell id="EBgIi9A2ly0JQrEV1j30-8" style="rounded=0;orthogonalLoop=1;jettySize=auto;html=1;exitX=0.5;exitY=0;exitDx=0;exitDy=0;entryX=0.308;entryY=0.983;entryDx=0;entryDy=0;entryPerimeter=0;" edge="1" parent="1" source="EBgIi9A2ly0JQrEV1j30-6" target="EBgIi9A2ly0JQrEV1j30-7">
          <mxGeometry relative="1" as="geometry" />
        </mxCell>
        <mxCell id="EBgIi9A2ly0JQrEV1j30-6" value="Player" style="rounded=0;whiteSpace=wrap;html=1;" vertex="1" parent="1">
          <mxGeometry x="414" y="240" width="120" height="60" as="geometry" />
        </mxCell>
        <mxCell id="EBgIi9A2ly0JQrEV1j30-7" value="LiveObject" style="rounded=0;whiteSpace=wrap;html=1;" vertex="1" parent="1">
          <mxGeometry x="474" y="80" width="120" height="60" as="geometry" />
        </mxCell>
      </root>
    </mxGraphModel>
  </diagram>
</mxfile>
